<svg width="268" height="27" viewBox="0 0 268 27" fill="none" xmlns="http://www.w3.org/2000/svg">
<mask id="path-1-inside-1_2_4076" fill="white">
<path d="M266.163 16.5721C265.833 16.5721 265.5 16.5451 265.178 16.5779C264.594 16.6357 264.301 16.4409 264.1 16.0223C263.103 13.9313 262.073 11.8499 261.058 9.76459C260.601 8.82709 260.159 7.88574 259.69 6.95209C259.072 5.72717 257.655 5.14461 256.186 5.51112C255.263 5.74067 254.707 6.27694 254.342 6.94438C253.121 9.18396 251.91 11.4293 250.689 13.6689C249.927 15.0674 248.716 16.1072 246.74 16.4332C243.936 16.8962 241.181 16.2249 239.958 13.856C238.163 10.3838 236.429 6.89422 234.664 3.41236C234.495 3.08057 234.597 2.94361 235.074 2.95325C235.885 2.96868 236.699 2.97254 237.513 2.95325C237.975 2.94361 238.188 3.11529 238.34 3.42779C239.191 5.19091 240.057 6.94824 240.918 8.70942C241.541 9.9845 242.174 11.2557 242.78 12.5347C243.249 13.5262 244.13 14.1107 245.485 14.184C246.189 14.2225 246.917 14.0644 247.291 13.5647C248.011 12.608 248.704 11.6338 249.284 10.6249C250.163 9.10101 250.94 7.54044 251.759 5.9953C252.62 4.36529 254.114 3.29083 256.375 3.0034C258.569 2.72563 260.847 3.33327 262.023 5.01344C262.857 6.20364 263.46 7.49415 264.11 8.75765C265.354 11.1766 266.56 13.6091 267.776 16.0377C268.039 16.5605 268.027 16.5701 267.304 16.5721C267.252 16.5721 267.2 16.5721 267.148 16.5721C266.818 16.5721 266.49 16.5721 266.16 16.5721H266.163Z"/>
<path d="M214.204 8.74222C214.204 10.4532 214.212 12.1624 214.204 13.8734C214.197 15.0655 213.184 16.2191 211.76 16.4911C209.794 16.8653 207.891 16.7804 206.389 15.5401C205.972 15.1948 205.642 14.7665 205.374 14.3364C203.674 11.628 202.004 8.91004 200.324 6.19399C200.264 6.09754 200.195 6.00302 200.13 5.91043C199.927 5.62493 199.594 5.51691 199.209 5.596C198.82 5.67702 198.562 5.89306 198.515 6.22293C198.502 6.31552 198.515 6.41197 198.515 6.50649C198.515 9.68357 198.515 12.8626 198.515 16.0397C198.515 16.5875 198.438 16.6492 197.748 16.6512C197.16 16.6512 196.569 16.6454 195.981 16.6531C195.616 16.657 195.435 16.5239 195.415 16.2499C195.407 16.1554 195.405 16.0609 195.405 15.9683C195.405 12.6967 195.405 9.42509 195.405 6.15155C195.405 5.18705 195.74 4.31706 196.69 3.65155C197.718 2.93203 198.981 2.89538 200.247 3.0034C201.937 3.15001 203.054 3.93512 203.788 5.0906C205.523 7.81243 207.255 10.5362 209.008 13.2522C209.154 13.4799 209.385 13.721 209.658 13.8445C210.36 14.157 211.065 13.8367 211.154 13.2079C211.172 13.0883 211.159 12.9648 211.159 12.8452C211.159 9.74723 211.159 6.65117 211.159 3.55317C211.159 3.04199 211.246 2.97447 211.906 2.97254C212.46 2.97061 213.016 2.97061 213.569 2.97254C214.006 2.97447 214.217 3.12107 214.212 3.49145C214.194 5.24106 214.204 6.9926 214.204 8.74222Z"/>
<path d="M216.153 9.66621C215.991 7.89152 216.788 6.34638 218.25 4.99222C219.379 3.94476 220.868 3.3487 222.563 3.07478C224.68 2.73334 226.809 2.6909 228.892 3.2156C231.964 3.98913 233.848 5.65194 234.453 8.09407C234.848 9.6855 234.835 11.2982 233.937 12.8317C232.761 14.8418 230.812 16.1554 228.006 16.4968C225.491 16.8036 222.928 16.8653 220.558 15.9259C218.064 14.9401 216.654 13.3217 216.242 11.1747C216.215 11.0281 216.16 10.8834 216.155 10.7368C216.143 10.3877 216.15 10.0366 216.15 9.66621H216.153ZM225.36 14.5273C228.805 14.8244 231.661 12.4941 231.537 9.62377C231.443 7.4247 229.323 5.01922 225.268 5.05973C221.878 5.09445 219.312 7.04469 219.188 9.61799C219.059 12.2607 221.6 14.7955 225.36 14.5293V14.5273Z"/>
<path d="M189.737 9.77231C189.737 7.67354 189.746 5.57478 189.727 3.47601C189.724 3.10178 189.851 2.93203 190.359 2.95132C190.997 2.9764 191.638 2.96675 192.278 2.96097C192.66 2.95711 192.797 3.10757 192.792 3.38728C192.782 3.83095 192.792 4.27462 192.792 4.7183C192.792 8.47215 192.792 12.226 192.792 15.9799C192.792 16.5605 192.777 16.5721 192.035 16.5721C191.464 16.5721 190.891 16.5528 190.322 16.5779C189.861 16.5972 189.727 16.4563 189.729 16.1091C189.744 13.9968 189.737 11.8846 189.737 9.77231Z"/>
<path d="M200.16 19.8051V23.3371H198.299V17.5983C198.929 17.5983 199.564 17.5848 200.195 17.6099C200.326 17.6157 200.49 17.7411 200.565 17.8452C201.416 18.9949 202.272 20.1408 203.079 21.3097C203.314 21.6512 203.394 22.0563 203.565 22.4806C204.141 20.7503 205.558 19.4116 206.556 17.9031C206.714 17.6639 206.92 17.581 207.255 17.5925C207.786 17.6099 208.32 17.5964 208.881 17.5964V23.3333H207.049V19.861C206.943 19.8842 206.886 19.89 206.883 19.8996C206.799 20.8699 206.032 21.601 205.426 22.3861C204.615 23.4355 204.615 23.4297 203.039 23.3796C202.696 23.368 202.461 23.2889 202.279 23.0458C201.934 22.5829 201.503 22.1566 201.192 21.6801C200.813 21.0956 200.522 20.4745 200.157 19.8051H200.16Z"/>
<path d="M254.374 23.3583C253.647 23.3583 252.92 23.3815 252.195 23.3526C251.421 23.3217 250.803 23.0131 250.391 22.5192C249.354 21.2692 249.339 19.5891 250.483 18.3641C250.964 17.8491 251.667 17.5983 252.496 17.5964C253.64 17.5925 254.781 17.5964 255.925 17.5964C257.541 17.5964 258.449 18.1288 258.901 19.3421C259.311 20.4378 259.189 21.4891 258.417 22.4691C257.951 23.0632 257.241 23.3545 256.345 23.3603C255.687 23.3641 255.03 23.3603 254.372 23.3603L254.374 23.3583ZM254.409 18.9139C253.977 18.9139 253.543 18.91 253.111 18.9139C252.434 18.9178 251.898 19.1743 251.761 19.6701C251.644 20.0945 251.567 20.5574 251.659 20.9799C251.821 21.7225 252.208 22.0813 253.305 22.062C254.136 22.0466 254.965 22.0582 255.796 22.0485C256.328 22.0408 256.73 21.8499 256.936 21.4641C257.276 20.8313 257.281 20.187 256.96 19.5485C256.749 19.128 256.332 18.9255 255.759 18.9178C255.31 18.912 254.858 18.9178 254.409 18.9178V18.9139Z"/>
<path d="M216.696 23.3429V19.2399H218.121C218.143 19.4116 218.165 19.591 218.202 19.8958C218.679 19.1627 219.443 19.2071 220.203 19.209C222.002 19.2168 223.804 19.211 225.603 19.211C227.018 19.211 227.767 19.6913 227.879 20.7947C227.963 21.6222 227.896 22.4575 227.896 23.3236H226.464C226.449 23.1732 226.432 23.0188 226.41 22.8086C225.397 23.7345 224.072 23.3178 222.871 23.341C222.253 23.3526 221.952 22.9571 221.816 22.4941C221.607 21.7823 222.099 20.9104 223.295 20.9779C224.223 21.03 225.159 20.9876 226.085 20.9876C226.194 20.5883 225.968 20.4494 225.539 20.4494C223.444 20.4494 221.349 20.4494 219.255 20.4494C218.85 20.4494 218.572 20.5941 218.547 20.9124C218.5 21.5412 218.49 22.172 218.468 22.8028C218.461 22.9841 218.468 23.1654 218.468 23.3429H216.696ZM226.1 21.6627C225.375 21.6627 224.685 21.6492 223.995 21.6743C223.846 21.6801 223.707 21.8267 223.566 21.9077C223.697 21.9907 223.824 22.1392 223.96 22.145C224.511 22.1701 225.065 22.1585 225.616 22.145C225.965 22.1373 226.154 21.9945 226.1 21.6627Z"/>
<path d="M235.93 17.4382H237.682V19.7993C238.548 19.0219 239.573 19.1299 240.563 19.3074C241.375 19.4521 241.871 19.9286 241.943 20.5709C242.032 21.3869 242.023 22.2087 242.06 23.0285C242.07 23.2638 241.943 23.3776 241.633 23.3738C241.201 23.368 240.772 23.3738 240.261 23.3738C240.261 22.7102 240.268 22.0698 240.256 21.4274C240.251 21.2306 240.226 21.0242 240.144 20.8371C239.935 20.3529 239.548 20.4378 238.409 20.4648C237.925 20.4764 237.697 20.7522 237.697 21.1265C237.697 21.7052 237.697 22.2839 237.697 22.8626C237.697 23.0092 237.697 23.1539 237.697 23.3603H235.935V17.4382H235.93Z"/>
<path d="M213.936 20.9895C213.996 20.5921 213.773 20.4455 213.316 20.4494C212.244 20.4552 211.169 20.4494 210.052 20.4494V19.2187C211.36 19.2187 212.658 19.1647 213.946 19.236C214.966 19.292 215.621 19.8861 215.723 20.8198C215.813 21.6454 215.743 22.4806 215.743 23.3371H214.289C214.271 23.1635 214.256 22.9938 214.237 22.7951C213.202 23.7441 211.837 23.3583 210.588 23.3352C209.936 23.3236 209.526 22.6832 209.598 22.01C209.66 21.4197 210.174 20.9972 210.869 20.9914C211.889 20.9837 212.909 20.9895 213.934 20.9895H213.936ZM213.944 21.6627C213.222 21.6627 212.532 21.6492 211.842 21.6724C211.69 21.6782 211.549 21.8151 211.402 21.8904C211.544 21.9791 211.678 22.1353 211.827 22.1431C212.341 22.1739 212.862 22.1546 213.378 22.1508C213.75 22.1489 213.951 22.008 213.944 21.6589V21.6627Z"/>
<path d="M233.19 23.3487C233.19 23.0709 233.2 22.7951 233.19 22.5192C233.165 21.9714 233.22 21.4081 233.071 20.8815C232.867 20.1504 232.031 20.5285 231.463 20.459C231.048 20.4089 230.758 20.5786 230.728 20.9278C230.683 21.4621 230.654 21.9965 230.626 22.5308C230.614 22.7854 230.626 23.0401 230.626 23.3275H228.857V19.2418H230.279C230.316 19.3807 230.351 19.51 230.388 19.6469C231.547 19.0914 232.736 19.0296 233.949 19.456C234.572 19.6739 234.86 20.0906 234.89 20.6153C234.942 21.5123 234.992 22.4093 235.044 23.3487H233.19Z"/>
<path d="M247.125 20.9895C247.103 20.7985 247.085 20.6462 247.063 20.4706C247.589 20.3491 248.11 20.2276 248.656 20.1002C249.133 21.1708 248.845 22.2472 248.929 23.3352H247.478C247.445 23.1751 247.413 23.0111 247.361 22.7449C246.939 23.3526 246.301 23.395 245.629 23.3834C245.058 23.3738 244.487 23.3853 243.916 23.3641C243.328 23.3429 242.926 23.0401 242.866 22.5848C242.834 22.3475 242.832 22.1045 242.861 21.8672C242.936 21.2866 243.368 20.9953 244.13 20.9934C245.112 20.9895 246.098 20.9934 247.128 20.9934L247.125 20.9895ZM247.095 21.6627C246.39 21.6627 245.686 21.6512 244.981 21.6724C244.837 21.6762 244.7 21.7978 244.559 21.8653C244.688 21.9637 244.81 22.1392 244.949 22.145C245.5 22.1739 246.055 22.1604 246.606 22.145C246.956 22.1353 247.145 21.9926 247.095 21.6627Z"/>
<path d="M247.306 19.2495C247.212 19.6006 247.142 19.9286 247.023 20.2468C246.991 20.3317 246.815 20.4397 246.703 20.4417C245.549 20.4552 244.395 20.4513 243.206 20.4513V19.2515H247.306V19.2495Z"/>
</mask>
<path d="M266.163 16.5721C265.833 16.5721 265.5 16.5451 265.178 16.5779C264.594 16.6357 264.301 16.4409 264.1 16.0223C263.103 13.9313 262.073 11.8499 261.058 9.76459C260.601 8.82709 260.159 7.88574 259.69 6.95209C259.072 5.72717 257.655 5.14461 256.186 5.51112C255.263 5.74067 254.707 6.27694 254.342 6.94438C253.121 9.18396 251.91 11.4293 250.689 13.6689C249.927 15.0674 248.716 16.1072 246.74 16.4332C243.936 16.8962 241.181 16.2249 239.958 13.856C238.163 10.3838 236.429 6.89422 234.664 3.41236C234.495 3.08057 234.597 2.94361 235.074 2.95325C235.885 2.96868 236.699 2.97254 237.513 2.95325C237.975 2.94361 238.188 3.11529 238.34 3.42779C239.191 5.19091 240.057 6.94824 240.918 8.70942C241.541 9.9845 242.174 11.2557 242.78 12.5347C243.249 13.5262 244.13 14.1107 245.485 14.184C246.189 14.2225 246.917 14.0644 247.291 13.5647C248.011 12.608 248.704 11.6338 249.284 10.6249C250.163 9.10101 250.94 7.54044 251.759 5.9953C252.62 4.36529 254.114 3.29083 256.375 3.0034C258.569 2.72563 260.847 3.33327 262.023 5.01344C262.857 6.20364 263.46 7.49415 264.11 8.75765C265.354 11.1766 266.56 13.6091 267.776 16.0377C268.039 16.5605 268.027 16.5701 267.304 16.5721C267.252 16.5721 267.2 16.5721 267.148 16.5721C266.818 16.5721 266.49 16.5721 266.16 16.5721H266.163Z" fill="white"/>
<path d="M214.204 8.74222C214.204 10.4532 214.212 12.1624 214.204 13.8734C214.197 15.0655 213.184 16.2191 211.76 16.4911C209.794 16.8653 207.891 16.7804 206.389 15.5401C205.972 15.1948 205.642 14.7665 205.374 14.3364C203.674 11.628 202.004 8.91004 200.324 6.19399C200.264 6.09754 200.195 6.00302 200.13 5.91043C199.927 5.62493 199.594 5.51691 199.209 5.596C198.82 5.67702 198.562 5.89306 198.515 6.22293C198.502 6.31552 198.515 6.41197 198.515 6.50649C198.515 9.68357 198.515 12.8626 198.515 16.0397C198.515 16.5875 198.438 16.6492 197.748 16.6512C197.16 16.6512 196.569 16.6454 195.981 16.6531C195.616 16.657 195.435 16.5239 195.415 16.2499C195.407 16.1554 195.405 16.0609 195.405 15.9683C195.405 12.6967 195.405 9.42509 195.405 6.15155C195.405 5.18705 195.74 4.31706 196.69 3.65155C197.718 2.93203 198.981 2.89538 200.247 3.0034C201.937 3.15001 203.054 3.93512 203.788 5.0906C205.523 7.81243 207.255 10.5362 209.008 13.2522C209.154 13.4799 209.385 13.721 209.658 13.8445C210.36 14.157 211.065 13.8367 211.154 13.2079C211.172 13.0883 211.159 12.9648 211.159 12.8452C211.159 9.74723 211.159 6.65117 211.159 3.55317C211.159 3.04199 211.246 2.97447 211.906 2.97254C212.46 2.97061 213.016 2.97061 213.569 2.97254C214.006 2.97447 214.217 3.12107 214.212 3.49145C214.194 5.24106 214.204 6.9926 214.204 8.74222Z" fill="white"/>
<path d="M216.153 9.66621C215.991 7.89152 216.788 6.34638 218.25 4.99222C219.379 3.94476 220.868 3.3487 222.563 3.07478C224.68 2.73334 226.809 2.6909 228.892 3.2156C231.964 3.98913 233.848 5.65194 234.453 8.09407C234.848 9.6855 234.835 11.2982 233.937 12.8317C232.761 14.8418 230.812 16.1554 228.006 16.4968C225.491 16.8036 222.928 16.8653 220.558 15.9259C218.064 14.9401 216.654 13.3217 216.242 11.1747C216.215 11.0281 216.16 10.8834 216.155 10.7368C216.143 10.3877 216.15 10.0366 216.15 9.66621H216.153ZM225.36 14.5273C228.805 14.8244 231.661 12.4941 231.537 9.62377C231.443 7.4247 229.323 5.01922 225.268 5.05973C221.878 5.09445 219.312 7.04469 219.188 9.61799C219.059 12.2607 221.6 14.7955 225.36 14.5293V14.5273Z" fill="white"/>
<path d="M189.737 9.77231C189.737 7.67354 189.746 5.57478 189.727 3.47601C189.724 3.10178 189.851 2.93203 190.359 2.95132C190.997 2.9764 191.638 2.96675 192.278 2.96097C192.66 2.95711 192.797 3.10757 192.792 3.38728C192.782 3.83095 192.792 4.27462 192.792 4.7183C192.792 8.47215 192.792 12.226 192.792 15.9799C192.792 16.5605 192.777 16.5721 192.035 16.5721C191.464 16.5721 190.891 16.5528 190.322 16.5779C189.861 16.5972 189.727 16.4563 189.729 16.1091C189.744 13.9968 189.737 11.8846 189.737 9.77231Z" fill="white"/>
<path d="M200.16 19.8051V23.3371H198.299V17.5983C198.929 17.5983 199.564 17.5848 200.195 17.6099C200.326 17.6157 200.49 17.7411 200.565 17.8452C201.416 18.9949 202.272 20.1408 203.079 21.3097C203.314 21.6512 203.394 22.0563 203.565 22.4806C204.141 20.7503 205.558 19.4116 206.556 17.9031C206.714 17.6639 206.92 17.581 207.255 17.5925C207.786 17.6099 208.32 17.5964 208.881 17.5964V23.3333H207.049V19.861C206.943 19.8842 206.886 19.89 206.883 19.8996C206.799 20.8699 206.032 21.601 205.426 22.3861C204.615 23.4355 204.615 23.4297 203.039 23.3796C202.696 23.368 202.461 23.2889 202.279 23.0458C201.934 22.5829 201.503 22.1566 201.192 21.6801C200.813 21.0956 200.522 20.4745 200.157 19.8051H200.16Z" fill="white"/>
<path d="M254.374 23.3583C253.647 23.3583 252.92 23.3815 252.195 23.3526C251.421 23.3217 250.803 23.0131 250.391 22.5192C249.354 21.2692 249.339 19.5891 250.483 18.3641C250.964 17.8491 251.667 17.5983 252.496 17.5964C253.64 17.5925 254.781 17.5964 255.925 17.5964C257.541 17.5964 258.449 18.1288 258.901 19.3421C259.311 20.4378 259.189 21.4891 258.417 22.4691C257.951 23.0632 257.241 23.3545 256.345 23.3603C255.687 23.3641 255.03 23.3603 254.372 23.3603L254.374 23.3583ZM254.409 18.9139C253.977 18.9139 253.543 18.91 253.111 18.9139C252.434 18.9178 251.898 19.1743 251.761 19.6701C251.644 20.0945 251.567 20.5574 251.659 20.9799C251.821 21.7225 252.208 22.0813 253.305 22.062C254.136 22.0466 254.965 22.0582 255.796 22.0485C256.328 22.0408 256.73 21.8499 256.936 21.4641C257.276 20.8313 257.281 20.187 256.96 19.5485C256.749 19.128 256.332 18.9255 255.759 18.9178C255.31 18.912 254.858 18.9178 254.409 18.9178V18.9139Z" fill="white"/>
<path d="M216.696 23.3429V19.2399H218.121C218.143 19.4116 218.165 19.591 218.202 19.8958C218.679 19.1627 219.443 19.2071 220.203 19.209C222.002 19.2168 223.804 19.211 225.603 19.211C227.018 19.211 227.767 19.6913 227.879 20.7947C227.963 21.6222 227.896 22.4575 227.896 23.3236H226.464C226.449 23.1732 226.432 23.0188 226.41 22.8086C225.397 23.7345 224.072 23.3178 222.871 23.341C222.253 23.3526 221.952 22.9571 221.816 22.4941C221.607 21.7823 222.099 20.9104 223.295 20.9779C224.223 21.03 225.159 20.9876 226.085 20.9876C226.194 20.5883 225.968 20.4494 225.539 20.4494C223.444 20.4494 221.349 20.4494 219.255 20.4494C218.85 20.4494 218.572 20.5941 218.547 20.9124C218.5 21.5412 218.49 22.172 218.468 22.8028C218.461 22.9841 218.468 23.1654 218.468 23.3429H216.696ZM226.1 21.6627C225.375 21.6627 224.685 21.6492 223.995 21.6743C223.846 21.6801 223.707 21.8267 223.566 21.9077C223.697 21.9907 223.824 22.1392 223.96 22.145C224.511 22.1701 225.065 22.1585 225.616 22.145C225.965 22.1373 226.154 21.9945 226.1 21.6627Z" fill="white"/>
<path d="M235.93 17.4382H237.682V19.7993C238.548 19.0219 239.573 19.1299 240.563 19.3074C241.375 19.4521 241.871 19.9286 241.943 20.5709C242.032 21.3869 242.023 22.2087 242.06 23.0285C242.07 23.2638 241.943 23.3776 241.633 23.3738C241.201 23.368 240.772 23.3738 240.261 23.3738C240.261 22.7102 240.268 22.0698 240.256 21.4274C240.251 21.2306 240.226 21.0242 240.144 20.8371C239.935 20.3529 239.548 20.4378 238.409 20.4648C237.925 20.4764 237.697 20.7522 237.697 21.1265C237.697 21.7052 237.697 22.2839 237.697 22.8626C237.697 23.0092 237.697 23.1539 237.697 23.3603H235.935V17.4382H235.93Z" fill="white"/>
<path d="M213.936 20.9895C213.996 20.5921 213.773 20.4455 213.316 20.4494C212.244 20.4552 211.169 20.4494 210.052 20.4494V19.2187C211.36 19.2187 212.658 19.1647 213.946 19.236C214.966 19.292 215.621 19.8861 215.723 20.8198C215.813 21.6454 215.743 22.4806 215.743 23.3371H214.289C214.271 23.1635 214.256 22.9938 214.237 22.7951C213.202 23.7441 211.837 23.3583 210.588 23.3352C209.936 23.3236 209.526 22.6832 209.598 22.01C209.66 21.4197 210.174 20.9972 210.869 20.9914C211.889 20.9837 212.909 20.9895 213.934 20.9895H213.936ZM213.944 21.6627C213.222 21.6627 212.532 21.6492 211.842 21.6724C211.69 21.6782 211.549 21.8151 211.402 21.8904C211.544 21.9791 211.678 22.1353 211.827 22.1431C212.341 22.1739 212.862 22.1546 213.378 22.1508C213.75 22.1489 213.951 22.008 213.944 21.6589V21.6627Z" fill="white"/>
<path d="M233.19 23.3487C233.19 23.0709 233.2 22.7951 233.19 22.5192C233.165 21.9714 233.22 21.4081 233.071 20.8815C232.867 20.1504 232.031 20.5285 231.463 20.459C231.048 20.4089 230.758 20.5786 230.728 20.9278C230.683 21.4621 230.654 21.9965 230.626 22.5308C230.614 22.7854 230.626 23.0401 230.626 23.3275H228.857V19.2418H230.279C230.316 19.3807 230.351 19.51 230.388 19.6469C231.547 19.0914 232.736 19.0296 233.949 19.456C234.572 19.6739 234.86 20.0906 234.89 20.6153C234.942 21.5123 234.992 22.4093 235.044 23.3487H233.19Z" fill="white"/>
<path d="M247.125 20.9895C247.103 20.7985 247.085 20.6462 247.063 20.4706C247.589 20.3491 248.11 20.2276 248.656 20.1002C249.133 21.1708 248.845 22.2472 248.929 23.3352H247.478C247.445 23.1751 247.413 23.0111 247.361 22.7449C246.939 23.3526 246.301 23.395 245.629 23.3834C245.058 23.3738 244.487 23.3853 243.916 23.3641C243.328 23.3429 242.926 23.0401 242.866 22.5848C242.834 22.3475 242.832 22.1045 242.861 21.8672C242.936 21.2866 243.368 20.9953 244.13 20.9934C245.112 20.9895 246.098 20.9934 247.128 20.9934L247.125 20.9895ZM247.095 21.6627C246.39 21.6627 245.686 21.6512 244.981 21.6724C244.837 21.6762 244.7 21.7978 244.559 21.8653C244.688 21.9637 244.81 22.1392 244.949 22.145C245.5 22.1739 246.055 22.1604 246.606 22.145C246.956 22.1353 247.145 21.9926 247.095 21.6627Z" fill="white"/>
<path d="M247.306 19.2495C247.212 19.6006 247.142 19.9286 247.023 20.2468C246.991 20.3317 246.815 20.4397 246.703 20.4417C245.549 20.4552 244.395 20.4513 243.206 20.4513V19.2515H247.306V19.2495Z" fill="white"/>
<path d="M266.163 16.5721C265.833 16.5721 265.5 16.5451 265.178 16.5779C264.594 16.6357 264.301 16.4409 264.1 16.0223C263.103 13.9313 262.073 11.8499 261.058 9.76459C260.601 8.82709 260.159 7.88574 259.69 6.95209C259.072 5.72717 257.655 5.14461 256.186 5.51112C255.263 5.74067 254.707 6.27694 254.342 6.94438C253.121 9.18396 251.91 11.4293 250.689 13.6689C249.927 15.0674 248.716 16.1072 246.74 16.4332C243.936 16.8962 241.181 16.2249 239.958 13.856C238.163 10.3838 236.429 6.89422 234.664 3.41236C234.495 3.08057 234.597 2.94361 235.074 2.95325C235.885 2.96868 236.699 2.97254 237.513 2.95325C237.975 2.94361 238.188 3.11529 238.34 3.42779C239.191 5.19091 240.057 6.94824 240.918 8.70942C241.541 9.9845 242.174 11.2557 242.78 12.5347C243.249 13.5262 244.13 14.1107 245.485 14.184C246.189 14.2225 246.917 14.0644 247.291 13.5647C248.011 12.608 248.704 11.6338 249.284 10.6249C250.163 9.10101 250.94 7.54044 251.759 5.9953C252.62 4.36529 254.114 3.29083 256.375 3.0034C258.569 2.72563 260.847 3.33327 262.023 5.01344C262.857 6.20364 263.46 7.49415 264.11 8.75765C265.354 11.1766 266.56 13.6091 267.776 16.0377C268.039 16.5605 268.027 16.5701 267.304 16.5721C267.252 16.5721 267.2 16.5721 267.148 16.5721C266.818 16.5721 266.49 16.5721 266.16 16.5721H266.163Z" stroke="white" stroke-width="2" mask="url(#path-1-inside-1_2_4076)"/>
<path d="M214.204 8.74222C214.204 10.4532 214.212 12.1624 214.204 13.8734C214.197 15.0655 213.184 16.2191 211.76 16.4911C209.794 16.8653 207.891 16.7804 206.389 15.5401C205.972 15.1948 205.642 14.7665 205.374 14.3364C203.674 11.628 202.004 8.91004 200.324 6.19399C200.264 6.09754 200.195 6.00302 200.13 5.91043C199.927 5.62493 199.594 5.51691 199.209 5.596C198.82 5.67702 198.562 5.89306 198.515 6.22293C198.502 6.31552 198.515 6.41197 198.515 6.50649C198.515 9.68357 198.515 12.8626 198.515 16.0397C198.515 16.5875 198.438 16.6492 197.748 16.6512C197.16 16.6512 196.569 16.6454 195.981 16.6531C195.616 16.657 195.435 16.5239 195.415 16.2499C195.407 16.1554 195.405 16.0609 195.405 15.9683C195.405 12.6967 195.405 9.42509 195.405 6.15155C195.405 5.18705 195.74 4.31706 196.69 3.65155C197.718 2.93203 198.981 2.89538 200.247 3.0034C201.937 3.15001 203.054 3.93512 203.788 5.0906C205.523 7.81243 207.255 10.5362 209.008 13.2522C209.154 13.4799 209.385 13.721 209.658 13.8445C210.36 14.157 211.065 13.8367 211.154 13.2079C211.172 13.0883 211.159 12.9648 211.159 12.8452C211.159 9.74723 211.159 6.65117 211.159 3.55317C211.159 3.04199 211.246 2.97447 211.906 2.97254C212.46 2.97061 213.016 2.97061 213.569 2.97254C214.006 2.97447 214.217 3.12107 214.212 3.49145C214.194 5.24106 214.204 6.9926 214.204 8.74222Z" stroke="white" stroke-width="2" mask="url(#path-1-inside-1_2_4076)"/>
<path d="M216.153 9.66621C215.991 7.89152 216.788 6.34638 218.25 4.99222C219.379 3.94476 220.868 3.3487 222.563 3.07478C224.68 2.73334 226.809 2.6909 228.892 3.2156C231.964 3.98913 233.848 5.65194 234.453 8.09407C234.848 9.6855 234.835 11.2982 233.937 12.8317C232.761 14.8418 230.812 16.1554 228.006 16.4968C225.491 16.8036 222.928 16.8653 220.558 15.9259C218.064 14.9401 216.654 13.3217 216.242 11.1747C216.215 11.0281 216.16 10.8834 216.155 10.7368C216.143 10.3877 216.15 10.0366 216.15 9.66621H216.153ZM225.36 14.5273C228.805 14.8244 231.661 12.4941 231.537 9.62377C231.443 7.4247 229.323 5.01922 225.268 5.05973C221.878 5.09445 219.312 7.04469 219.188 9.61799C219.059 12.2607 221.6 14.7955 225.36 14.5293V14.5273Z" stroke="white" stroke-width="2" mask="url(#path-1-inside-1_2_4076)"/>
<path d="M189.737 9.77231C189.737 7.67354 189.746 5.57478 189.727 3.47601C189.724 3.10178 189.851 2.93203 190.359 2.95132C190.997 2.9764 191.638 2.96675 192.278 2.96097C192.66 2.95711 192.797 3.10757 192.792 3.38728C192.782 3.83095 192.792 4.27462 192.792 4.7183C192.792 8.47215 192.792 12.226 192.792 15.9799C192.792 16.5605 192.777 16.5721 192.035 16.5721C191.464 16.5721 190.891 16.5528 190.322 16.5779C189.861 16.5972 189.727 16.4563 189.729 16.1091C189.744 13.9968 189.737 11.8846 189.737 9.77231Z" stroke="white" stroke-width="2" mask="url(#path-1-inside-1_2_4076)"/>
<path d="M200.16 19.8051V23.3371H198.299V17.5983C198.929 17.5983 199.564 17.5848 200.195 17.6099C200.326 17.6157 200.49 17.7411 200.565 17.8452C201.416 18.9949 202.272 20.1408 203.079 21.3097C203.314 21.6512 203.394 22.0563 203.565 22.4806C204.141 20.7503 205.558 19.4116 206.556 17.9031C206.714 17.6639 206.92 17.581 207.255 17.5925C207.786 17.6099 208.32 17.5964 208.881 17.5964V23.3333H207.049V19.861C206.943 19.8842 206.886 19.89 206.883 19.8996C206.799 20.8699 206.032 21.601 205.426 22.3861C204.615 23.4355 204.615 23.4297 203.039 23.3796C202.696 23.368 202.461 23.2889 202.279 23.0458C201.934 22.5829 201.503 22.1566 201.192 21.6801C200.813 21.0956 200.522 20.4745 200.157 19.8051H200.16Z" stroke="white" stroke-width="2" mask="url(#path-1-inside-1_2_4076)"/>
<path d="M254.374 23.3583C253.647 23.3583 252.92 23.3815 252.195 23.3526C251.421 23.3217 250.803 23.0131 250.391 22.5192C249.354 21.2692 249.339 19.5891 250.483 18.3641C250.964 17.8491 251.667 17.5983 252.496 17.5964C253.64 17.5925 254.781 17.5964 255.925 17.5964C257.541 17.5964 258.449 18.1288 258.901 19.3421C259.311 20.4378 259.189 21.4891 258.417 22.4691C257.951 23.0632 257.241 23.3545 256.345 23.3603C255.687 23.3641 255.03 23.3603 254.372 23.3603L254.374 23.3583ZM254.409 18.9139C253.977 18.9139 253.543 18.91 253.111 18.9139C252.434 18.9178 251.898 19.1743 251.761 19.6701C251.644 20.0945 251.567 20.5574 251.659 20.9799C251.821 21.7225 252.208 22.0813 253.305 22.062C254.136 22.0466 254.965 22.0582 255.796 22.0485C256.328 22.0408 256.73 21.8499 256.936 21.4641C257.276 20.8313 257.281 20.187 256.96 19.5485C256.749 19.128 256.332 18.9255 255.759 18.9178C255.31 18.912 254.858 18.9178 254.409 18.9178V18.9139Z" stroke="white" stroke-width="2" mask="url(#path-1-inside-1_2_4076)"/>
<path d="M216.696 23.3429V19.2399H218.121C218.143 19.4116 218.165 19.591 218.202 19.8958C218.679 19.1627 219.443 19.2071 220.203 19.209C222.002 19.2168 223.804 19.211 225.603 19.211C227.018 19.211 227.767 19.6913 227.879 20.7947C227.963 21.6222 227.896 22.4575 227.896 23.3236H226.464C226.449 23.1732 226.432 23.0188 226.41 22.8086C225.397 23.7345 224.072 23.3178 222.871 23.341C222.253 23.3526 221.952 22.9571 221.816 22.4941C221.607 21.7823 222.099 20.9104 223.295 20.9779C224.223 21.03 225.159 20.9876 226.085 20.9876C226.194 20.5883 225.968 20.4494 225.539 20.4494C223.444 20.4494 221.349 20.4494 219.255 20.4494C218.85 20.4494 218.572 20.5941 218.547 20.9124C218.5 21.5412 218.49 22.172 218.468 22.8028C218.461 22.9841 218.468 23.1654 218.468 23.3429H216.696ZM226.1 21.6627C225.375 21.6627 224.685 21.6492 223.995 21.6743C223.846 21.6801 223.707 21.8267 223.566 21.9077C223.697 21.9907 223.824 22.1392 223.96 22.145C224.511 22.1701 225.065 22.1585 225.616 22.145C225.965 22.1373 226.154 21.9945 226.1 21.6627Z" stroke="white" stroke-width="2" mask="url(#path-1-inside-1_2_4076)"/>
<path d="M235.93 17.4382H237.682V19.7993C238.548 19.0219 239.573 19.1299 240.563 19.3074C241.375 19.4521 241.871 19.9286 241.943 20.5709C242.032 21.3869 242.023 22.2087 242.06 23.0285C242.07 23.2638 241.943 23.3776 241.633 23.3738C241.201 23.368 240.772 23.3738 240.261 23.3738C240.261 22.7102 240.268 22.0698 240.256 21.4274C240.251 21.2306 240.226 21.0242 240.144 20.8371C239.935 20.3529 239.548 20.4378 238.409 20.4648C237.925 20.4764 237.697 20.7522 237.697 21.1265C237.697 21.7052 237.697 22.2839 237.697 22.8626C237.697 23.0092 237.697 23.1539 237.697 23.3603H235.935V17.4382H235.93Z" stroke="white" stroke-width="2" mask="url(#path-1-inside-1_2_4076)"/>
<path d="M213.936 20.9895C213.996 20.5921 213.773 20.4455 213.316 20.4494C212.244 20.4552 211.169 20.4494 210.052 20.4494V19.2187C211.36 19.2187 212.658 19.1647 213.946 19.236C214.966 19.292 215.621 19.8861 215.723 20.8198C215.813 21.6454 215.743 22.4806 215.743 23.3371H214.289C214.271 23.1635 214.256 22.9938 214.237 22.7951C213.202 23.7441 211.837 23.3583 210.588 23.3352C209.936 23.3236 209.526 22.6832 209.598 22.01C209.66 21.4197 210.174 20.9972 210.869 20.9914C211.889 20.9837 212.909 20.9895 213.934 20.9895H213.936ZM213.944 21.6627C213.222 21.6627 212.532 21.6492 211.842 21.6724C211.69 21.6782 211.549 21.8151 211.402 21.8904C211.544 21.9791 211.678 22.1353 211.827 22.1431C212.341 22.1739 212.862 22.1546 213.378 22.1508C213.75 22.1489 213.951 22.008 213.944 21.6589V21.6627Z" stroke="white" stroke-width="2" mask="url(#path-1-inside-1_2_4076)"/>
<path d="M233.19 23.3487C233.19 23.0709 233.2 22.7951 233.19 22.5192C233.165 21.9714 233.22 21.4081 233.071 20.8815C232.867 20.1504 232.031 20.5285 231.463 20.459C231.048 20.4089 230.758 20.5786 230.728 20.9278C230.683 21.4621 230.654 21.9965 230.626 22.5308C230.614 22.7854 230.626 23.0401 230.626 23.3275H228.857V19.2418H230.279C230.316 19.3807 230.351 19.51 230.388 19.6469C231.547 19.0914 232.736 19.0296 233.949 19.456C234.572 19.6739 234.86 20.0906 234.89 20.6153C234.942 21.5123 234.992 22.4093 235.044 23.3487H233.19Z" stroke="white" stroke-width="2" mask="url(#path-1-inside-1_2_4076)"/>
<path d="M247.125 20.9895C247.103 20.7985 247.085 20.6462 247.063 20.4706C247.589 20.3491 248.11 20.2276 248.656 20.1002C249.133 21.1708 248.845 22.2472 248.929 23.3352H247.478C247.445 23.1751 247.413 23.0111 247.361 22.7449C246.939 23.3526 246.301 23.395 245.629 23.3834C245.058 23.3738 244.487 23.3853 243.916 23.3641C243.328 23.3429 242.926 23.0401 242.866 22.5848C242.834 22.3475 242.832 22.1045 242.861 21.8672C242.936 21.2866 243.368 20.9953 244.13 20.9934C245.112 20.9895 246.098 20.9934 247.128 20.9934L247.125 20.9895ZM247.095 21.6627C246.39 21.6627 245.686 21.6512 244.981 21.6724C244.837 21.6762 244.7 21.7978 244.559 21.8653C244.688 21.9637 244.81 22.1392 244.949 22.145C245.5 22.1739 246.055 22.1604 246.606 22.145C246.956 22.1353 247.145 21.9926 247.095 21.6627Z" stroke="white" stroke-width="2" mask="url(#path-1-inside-1_2_4076)"/>
<path d="M247.306 19.2495C247.212 19.6006 247.142 19.9286 247.023 20.2468C246.991 20.3317 246.815 20.4397 246.703 20.4417C245.549 20.4552 244.395 20.4513 243.206 20.4513V19.2515H247.306V19.2495Z" stroke="white" stroke-width="2" mask="url(#path-1-inside-1_2_4076)"/>
<path d="M170.312 0V26.25" stroke="white" stroke-width="3" stroke-miterlimit="10"/>
<mask id="path-3-inside-2_2_4076" fill="white">
<path d="M41.6548 21.7746L38.3516 19.1673V11.0044H34.7605V7.51752H38.3516V3.71916H44.0622V7.51752H50.2021V11.0044H44.0622V17.7216L44.5287 18.0898H50.49V21.7746H41.6548Z"/>
<path d="M53.756 21.7746V7.51752H58.3175V8.65173H59L60.6876 7.51752H67.2941V11.2023H61.1542L59.4666 12.2797V21.7746H53.756Z"/>
<path d="M69.4483 5.27846V1.93262H75.3003V5.2765H69.4483V5.27846ZM69.5202 21.7746V7.51752H75.2308V21.7746H69.5202Z"/>
<path d="M80.7949 21.7746V5.39208H77.2038V1.93262H86.5055V21.7726H80.7949V21.7746Z"/>
<path d="M91.6031 21.7746V1.93262H97.3136V8.36573H97.6735L99.0013 7.51556H106.613L110.599 10.6616V21.7726H104.888V12.1641L103.667 11.2003H99.1427L97.3112 12.3619V21.7726H91.6006L91.6031 21.7746Z"/>
<path d="M117.565 21.7746L114.262 19.1672V15.5393L117.674 12.8458H127.656V11.9388L126.613 11.0886H116.704V7.51752H129.666L133.364 10.4363V21.7746H128.802V20.6129H128.227L126.467 21.7746H117.562H117.565ZM126.003 18.3739L127.656 17.3259V15.7391H120.868L119.97 16.4483V17.8646L120.615 18.3739H126.003Z"/>
<path d="M137.675 21.7746V18.3739H149.203L149.848 17.8646V16.8733L149.203 16.3346H140.693L137.389 13.7547V10.0974L140.693 7.51752H154.553V10.9182H143.745L143.1 11.4275V12.4188L143.745 12.9281H152.255L155.558 15.5354V19.1633L152.255 21.7707H137.677L137.675 21.7746Z"/>
<path d="M22.0985 3.01003H4.32149L0.226562 6.49496L0.442477 20.4425L4.42821 23.4201H21.5599L26.0867 20.4425L26.3026 6.32453L22.1009 3.00807L22.0985 3.01003ZM22.8628 19.2064L22.0041 19.7706H19.4405L18.6662 19.1947L18.6612 18.8734H9.04679L6.82312 17.1182V14.2464L9.04679 12.4912H15.9213L17.1349 11.5333V10.0171L15.9213 9.05919H7.86547L7.86051 9.43335L7.00181 9.99948H4.43814L3.66382 9.42159L3.63156 7.32162L4.40587 6.66147H7.09364L7.89029 7.29224L7.88532 7.70361H16.8321L19.0558 9.45881V12.0916L16.8321 13.8468H9.95761L8.74402 14.8047V16.5599L9.95761 17.5178H18.6413L18.6364 17.0947L19.4107 16.4346H22.096L22.8951 17.0634L22.8628 19.2064Z"/>
</mask>
<path d="M41.6548 21.7746L38.3516 19.1673V11.0044H34.7605V7.51752H38.3516V3.71916H44.0622V7.51752H50.2021V11.0044H44.0622V17.7216L44.5287 18.0898H50.49V21.7746H41.6548Z" fill="white"/>
<path d="M53.756 21.7746V7.51752H58.3175V8.65173H59L60.6876 7.51752H67.2941V11.2023H61.1542L59.4666 12.2797V21.7746H53.756Z" fill="white"/>
<path d="M69.4483 5.27846V1.93262H75.3003V5.2765H69.4483V5.27846ZM69.5202 21.7746V7.51752H75.2308V21.7746H69.5202Z" fill="white"/>
<path d="M80.7949 21.7746V5.39208H77.2038V1.93262H86.5055V21.7726H80.7949V21.7746Z" fill="white"/>
<path d="M91.6031 21.7746V1.93262H97.3136V8.36573H97.6735L99.0013 7.51556H106.613L110.599 10.6616V21.7726H104.888V12.1641L103.667 11.2003H99.1427L97.3112 12.3619V21.7726H91.6006L91.6031 21.7746Z" fill="white"/>
<path d="M117.565 21.7746L114.262 19.1672V15.5393L117.674 12.8458H127.656V11.9388L126.613 11.0886H116.704V7.51752H129.666L133.364 10.4363V21.7746H128.802V20.6129H128.227L126.467 21.7746H117.562H117.565ZM126.003 18.3739L127.656 17.3259V15.7391H120.868L119.97 16.4483V17.8646L120.615 18.3739H126.003Z" fill="white"/>
<path d="M137.675 21.7746V18.3739H149.203L149.848 17.8646V16.8733L149.203 16.3346H140.693L137.389 13.7547V10.0974L140.693 7.51752H154.553V10.9182H143.745L143.1 11.4275V12.4188L143.745 12.9281H152.255L155.558 15.5354V19.1633L152.255 21.7707H137.677L137.675 21.7746Z" fill="white"/>
<path d="M22.0985 3.01003H4.32149L0.226562 6.49496L0.442477 20.4425L4.42821 23.4201H21.5599L26.0867 20.4425L26.3026 6.32453L22.1009 3.00807L22.0985 3.01003ZM22.8628 19.2064L22.0041 19.7706H19.4405L18.6662 19.1947L18.6612 18.8734H9.04679L6.82312 17.1182V14.2464L9.04679 12.4912H15.9213L17.1349 11.5333V10.0171L15.9213 9.05919H7.86547L7.86051 9.43335L7.00181 9.99948H4.43814L3.66382 9.42159L3.63156 7.32162L4.40587 6.66147H7.09364L7.89029 7.29224L7.88532 7.70361H16.8321L19.0558 9.45881V12.0916L16.8321 13.8468H9.95761L8.74402 14.8047V16.5599L9.95761 17.5178H18.6413L18.6364 17.0947L19.4107 16.4346H22.096L22.8951 17.0634L22.8628 19.2064Z" fill="white"/>
<path d="M41.6548 21.7746L38.3516 19.1673V11.0044H34.7605V7.51752H38.3516V3.71916H44.0622V7.51752H50.2021V11.0044H44.0622V17.7216L44.5287 18.0898H50.49V21.7746H41.6548Z" stroke="white" stroke-width="2" mask="url(#path-3-inside-2_2_4076)"/>
<path d="M53.756 21.7746V7.51752H58.3175V8.65173H59L60.6876 7.51752H67.2941V11.2023H61.1542L59.4666 12.2797V21.7746H53.756Z" stroke="white" stroke-width="2" mask="url(#path-3-inside-2_2_4076)"/>
<path d="M69.4483 5.27846V1.93262H75.3003V5.2765H69.4483V5.27846ZM69.5202 21.7746V7.51752H75.2308V21.7746H69.5202Z" stroke="white" stroke-width="2" mask="url(#path-3-inside-2_2_4076)"/>
<path d="M80.7949 21.7746V5.39208H77.2038V1.93262H86.5055V21.7726H80.7949V21.7746Z" stroke="white" stroke-width="2" mask="url(#path-3-inside-2_2_4076)"/>
<path d="M91.6031 21.7746V1.93262H97.3136V8.36573H97.6735L99.0013 7.51556H106.613L110.599 10.6616V21.7726H104.888V12.1641L103.667 11.2003H99.1427L97.3112 12.3619V21.7726H91.6006L91.6031 21.7746Z" stroke="white" stroke-width="2" mask="url(#path-3-inside-2_2_4076)"/>
<path d="M117.565 21.7746L114.262 19.1672V15.5393L117.674 12.8458H127.656V11.9388L126.613 11.0886H116.704V7.51752H129.666L133.364 10.4363V21.7746H128.802V20.6129H128.227L126.467 21.7746H117.562H117.565ZM126.003 18.3739L127.656 17.3259V15.7391H120.868L119.97 16.4483V17.8646L120.615 18.3739H126.003Z" stroke="white" stroke-width="2" mask="url(#path-3-inside-2_2_4076)"/>
<path d="M137.675 21.7746V18.3739H149.203L149.848 17.8646V16.8733L149.203 16.3346H140.693L137.389 13.7547V10.0974L140.693 7.51752H154.553V10.9182H143.745L143.1 11.4275V12.4188L143.745 12.9281H152.255L155.558 15.5354V19.1633L152.255 21.7707H137.677L137.675 21.7746Z" stroke="white" stroke-width="2" mask="url(#path-3-inside-2_2_4076)"/>
<path d="M22.0985 3.01003H4.32149L0.226562 6.49496L0.442477 20.4425L4.42821 23.4201H21.5599L26.0867 20.4425L26.3026 6.32453L22.1009 3.00807L22.0985 3.01003ZM22.8628 19.2064L22.0041 19.7706H19.4405L18.6662 19.1947L18.6612 18.8734H9.04679L6.82312 17.1182V14.2464L9.04679 12.4912H15.9213L17.1349 11.5333V10.0171L15.9213 9.05919H7.86547L7.86051 9.43335L7.00181 9.99948H4.43814L3.66382 9.42159L3.63156 7.32162L4.40587 6.66147H7.09364L7.89029 7.29224L7.88532 7.70361H16.8321L19.0558 9.45881V12.0916L16.8321 13.8468H9.95761L8.74402 14.8047V16.5599L9.95761 17.5178H18.6413L18.6364 17.0947L19.4107 16.4346H22.096L22.8951 17.0634L22.8628 19.2064Z" stroke="white" stroke-width="2" mask="url(#path-3-inside-2_2_4076)"/>
</svg>
