<svg width="226" height="40" viewBox="0 0 226 40" fill="none" xmlns="http://www.w3.org/2000/svg">
<mask id="path-1-inside-1_2010_138" fill="white">
<path d="M60.2507 36.9368L55.4467 32.0831V16.8876H50.224V10.3966H55.4467V3.32574H63.7518V10.3966H72.6813V16.8876H63.7518V29.3919L64.4303 30.0775H73.1V36.9368H60.2507Z"/>
<path d="M77.8499 36.9368V10.3966H84.4838V12.508H85.4764L87.9308 10.3966H97.5388V17.2559H88.6093L86.155 19.2616V36.9368H77.8499Z"/>
<path d="M100.672 6.22846V0H109.183V6.22481H100.672V6.22846ZM100.776 36.9368V10.3966H109.082V36.9368H100.776Z"/>
<path d="M117.174 36.9368V6.43997H111.951V0H125.479V36.9332H117.174V36.9368Z"/>
<path d="M132.892 36.9368V0H141.197V11.9756H141.721L143.652 10.3929H154.722L160.518 16.2494V36.9332H152.213V19.0464L150.437 17.2523H143.858L141.194 19.4147V36.9332H132.889L132.892 36.9368Z"/>
<path d="M170.65 36.9368L165.846 32.0831V25.3296L170.808 20.3154H185.325V18.627L183.809 17.0444H169.397V10.3966H188.249L193.627 15.8301V36.9368H186.993V34.7744H186.155L183.596 36.9368H170.646H170.65ZM182.921 30.6062L185.325 28.6553V25.7015H175.454L174.147 27.0216V29.6581L175.086 30.6062H182.921Z"/>
<path d="M199.896 36.9368V30.6062H216.662L217.6 29.6581V27.8129L216.662 26.8101H204.285L199.481 22.0075V15.1992L204.285 10.3966H224.443V16.7271H208.725L207.786 17.6753V19.5205L208.725 20.4686H221.101L225.905 25.3223V32.0758L221.101 36.9295H199.9L199.896 36.9368Z"/>
<path d="M31.8091 2.00565H5.95541L0 8.49302L0.314013 34.4571L6.11061 40H31.0259L37.6093 34.4571L37.9233 8.17577L31.8127 2.00201L31.8091 2.00565ZM32.9208 32.1561L31.672 33.2063H27.9435L26.8174 32.1342L26.8102 31.5361H12.8276L9.59363 28.2688V22.9228L12.8276 19.6554H22.8255L24.5904 17.8722V15.0497L22.8255 13.2665H11.1096L11.1023 13.963L9.8535 15.0169H6.12505L4.99894 13.9411L4.95202 10.0319L6.07813 8.80299H9.98705L11.1456 9.97721L11.1384 10.743H24.1501L27.3841 14.0104V18.9115L24.1501 22.1789H14.1522L12.3873 23.9621V27.2295L14.1522 29.0127H26.7813L26.7741 28.225L27.9002 26.9961H31.8055L32.9677 28.1666L32.9208 32.1561Z"/>
</mask>
<path d="M60.2507 36.9368L55.4467 32.0831V16.8876H50.224V10.3966H55.4467V3.32574H63.7518V10.3966H72.6813V16.8876H63.7518V29.3919L64.4303 30.0775H73.1V36.9368H60.2507Z" fill="white"/>
<path d="M77.8499 36.9368V10.3966H84.4838V12.508H85.4764L87.9308 10.3966H97.5388V17.2559H88.6093L86.155 19.2616V36.9368H77.8499Z" fill="white"/>
<path d="M100.672 6.22846V0H109.183V6.22481H100.672V6.22846ZM100.776 36.9368V10.3966H109.082V36.9368H100.776Z" fill="white"/>
<path d="M117.174 36.9368V6.43997H111.951V0H125.479V36.9332H117.174V36.9368Z" fill="white"/>
<path d="M132.892 36.9368V0H141.197V11.9756H141.721L143.652 10.3929H154.722L160.518 16.2494V36.9332H152.213V19.0464L150.437 17.2523H143.858L141.194 19.4147V36.9332H132.889L132.892 36.9368Z" fill="white"/>
<path d="M170.65 36.9368L165.846 32.0831V25.3296L170.808 20.3154H185.325V18.627L183.809 17.0444H169.397V10.3966H188.249L193.627 15.8301V36.9368H186.993V34.7744H186.155L183.596 36.9368H170.646H170.65ZM182.921 30.6062L185.325 28.6553V25.7015H175.454L174.147 27.0216V29.6581L175.086 30.6062H182.921Z" fill="white"/>
<path d="M199.896 36.9368V30.6062H216.662L217.6 29.6581V27.8129L216.662 26.8101H204.285L199.481 22.0075V15.1992L204.285 10.3966H224.443V16.7271H208.725L207.786 17.6753V19.5205L208.725 20.4686H221.101L225.905 25.3223V32.0758L221.101 36.9295H199.9L199.896 36.9368Z" fill="white"/>
<path d="M31.8091 2.00565H5.95541L0 8.49302L0.314013 34.4571L6.11061 40H31.0259L37.6093 34.4571L37.9233 8.17577L31.8127 2.00201L31.8091 2.00565ZM32.9208 32.1561L31.672 33.2063H27.9435L26.8174 32.1342L26.8102 31.5361H12.8276L9.59363 28.2688V22.9228L12.8276 19.6554H22.8255L24.5904 17.8722V15.0497L22.8255 13.2665H11.1096L11.1023 13.963L9.8535 15.0169H6.12505L4.99894 13.9411L4.95202 10.0319L6.07813 8.80299H9.98705L11.1456 9.97721L11.1384 10.743H24.1501L27.3841 14.0104V18.9115L24.1501 22.1789H14.1522L12.3873 23.9621V27.2295L14.1522 29.0127H26.7813L26.7741 28.225L27.9002 26.9961H31.8055L32.9677 28.1666L32.9208 32.1561Z" fill="white"/>
<path d="M60.2507 36.9368L55.4467 32.0831V16.8876H50.224V10.3966H55.4467V3.32574H63.7518V10.3966H72.6813V16.8876H63.7518V29.3919L64.4303 30.0775H73.1V36.9368H60.2507Z" stroke="white" stroke-width="2" mask="url(#path-1-inside-1_2010_138)"/>
<path d="M77.8499 36.9368V10.3966H84.4838V12.508H85.4764L87.9308 10.3966H97.5388V17.2559H88.6093L86.155 19.2616V36.9368H77.8499Z" stroke="white" stroke-width="2" mask="url(#path-1-inside-1_2010_138)"/>
<path d="M100.672 6.22846V0H109.183V6.22481H100.672V6.22846ZM100.776 36.9368V10.3966H109.082V36.9368H100.776Z" stroke="white" stroke-width="2" mask="url(#path-1-inside-1_2010_138)"/>
<path d="M117.174 36.9368V6.43997H111.951V0H125.479V36.9332H117.174V36.9368Z" stroke="white" stroke-width="2" mask="url(#path-1-inside-1_2010_138)"/>
<path d="M132.892 36.9368V0H141.197V11.9756H141.721L143.652 10.3929H154.722L160.518 16.2494V36.9332H152.213V19.0464L150.437 17.2523H143.858L141.194 19.4147V36.9332H132.889L132.892 36.9368Z" stroke="white" stroke-width="2" mask="url(#path-1-inside-1_2010_138)"/>
<path d="M170.65 36.9368L165.846 32.0831V25.3296L170.808 20.3154H185.325V18.627L183.809 17.0444H169.397V10.3966H188.249L193.627 15.8301V36.9368H186.993V34.7744H186.155L183.596 36.9368H170.646H170.65ZM182.921 30.6062L185.325 28.6553V25.7015H175.454L174.147 27.0216V29.6581L175.086 30.6062H182.921Z" stroke="white" stroke-width="2" mask="url(#path-1-inside-1_2010_138)"/>
<path d="M199.896 36.9368V30.6062H216.662L217.6 29.6581V27.8129L216.662 26.8101H204.285L199.481 22.0075V15.1992L204.285 10.3966H224.443V16.7271H208.725L207.786 17.6753V19.5205L208.725 20.4686H221.101L225.905 25.3223V32.0758L221.101 36.9295H199.9L199.896 36.9368Z" stroke="white" stroke-width="2" mask="url(#path-1-inside-1_2010_138)"/>
<path d="M31.8091 2.00565H5.95541L0 8.49302L0.314013 34.4571L6.11061 40H31.0259L37.6093 34.4571L37.9233 8.17577L31.8127 2.00201L31.8091 2.00565ZM32.9208 32.1561L31.672 33.2063H27.9435L26.8174 32.1342L26.8102 31.5361H12.8276L9.59363 28.2688V22.9228L12.8276 19.6554H22.8255L24.5904 17.8722V15.0497L22.8255 13.2665H11.1096L11.1023 13.963L9.8535 15.0169H6.12505L4.99894 13.9411L4.95202 10.0319L6.07813 8.80299H9.98705L11.1456 9.97721L11.1384 10.743H24.1501L27.3841 14.0104V18.9115L24.1501 22.1789H14.1522L12.3873 23.9621V27.2295L14.1522 29.0127H26.7813L26.7741 28.225L27.9002 26.9961H31.8055L32.9677 28.1666L32.9208 32.1561Z" stroke="white" stroke-width="2" mask="url(#path-1-inside-1_2010_138)"/>
</svg>
