<svg width="155" height="108" viewBox="0 0 155 108" fill="none" xmlns="http://www.w3.org/2000/svg">
<path d="M1.29706 1.40446C0.332505 2.39597 0.0109863 9.1162 0.0109863 25.0905V47.4546L2.79748 48.5562C6.33419 49.9884 40.8439 49.9884 44.3806 48.5562L47.1671 47.4546V25.0905C47.1671 9.1162 46.8456 2.39597 45.881 1.40446C44.0591 -0.468388 3.119 -0.468388 1.29706 1.40446ZM31.9485 7.79419C36.7713 10.8789 39.665 16.1669 39.665 22.2262C39.665 29.8277 36.4498 33.9039 26.8042 38.8615C17.0515 43.7089 16.0869 43.819 16.0869 40.1835C16.0869 38.4208 15.0152 36.4378 13.4076 35.1158C1.51141 25.5312 8.47765 5.59084 23.589 5.59084C26.4827 5.59084 29.8051 6.47218 31.9485 7.79419Z" fill="#214A96"/>
<path d="M54.9911 0.853928C53.9194 1.18443 53.5979 7.02332 53.5979 24.4298V47.4549L56.5987 48.6667C58.3135 49.3277 67.1017 49.6582 79.1051 49.4379C95.0738 49.2175 98.932 48.7769 99.6823 47.4549C101.29 44.921 101.076 3.05728 99.4679 1.40477C98.5033 0.413258 92.1801 0.0827522 77.2831 0.192921C65.7084 0.192921 55.6342 0.523422 54.9911 0.853928ZM71.2814 13.9639C72.4603 16.9384 72.5675 18.2604 71.603 19.9129C69.9954 22.557 72.5675 26.8535 77.3903 29.3874C80.4983 31.0399 80.8198 31.0399 81.9987 29.3874C83.6063 27.184 86.7143 27.184 89.8223 29.3874C92.8232 31.4805 92.8232 34.7856 89.8223 36.8788C83.8207 41.2855 72.1388 36.2178 65.2797 26.4128C61.9574 21.5655 61.1 17.4893 62.8148 13.5232C64.8511 8.34533 69.0308 8.56567 71.2814 13.9639Z" fill="#214A96"/>
<path d="M107.185 2.17605C106.541 3.49806 106.113 12.642 106.113 24.3197C106.113 35.9975 106.541 45.1414 107.185 46.4635C108.256 48.4465 109.649 48.5566 130.012 48.5566C145.552 48.5566 152.09 48.2261 153.055 47.2346C154.876 45.3618 154.876 3.27772 153.055 1.40487C152.09 0.413364 145.552 0.082859 130.012 0.082859C109.649 0.082859 108.256 0.193027 107.185 2.17605ZM140.515 10.5488C150.911 17.4894 149.411 34.4552 137.943 39.7432C135.478 40.9551 132.263 41.9466 130.763 41.9466C126.261 41.9466 119.188 37.8704 116.83 34.0145C113.615 28.5061 113.079 23.8791 115.222 18.2605C119.081 7.57426 130.87 4.0489 140.515 10.5488Z" fill="#214A96"/>
<path d="M128.618 15.0655C126.689 20.2434 127.225 22.1162 130.762 22.1162C133.227 22.1162 133.977 21.5654 133.977 20.023C133.977 16.8282 132.048 12.2011 130.762 12.2011C130.119 12.2011 129.154 13.5231 128.618 15.0655Z" fill="#214A96"/>
<path d="M121.974 15.1756C121.009 16.2773 119.723 18.2603 119.08 19.5824C117.901 21.8959 118.116 22.1162 120.366 22.1162C122.51 22.1162 123.046 21.4552 123.581 18.04C124.439 13.1926 124.117 12.6418 121.974 15.1756Z" fill="#214A96"/>
<path d="M137.514 15.5061C137.942 17.0485 138.264 19.1417 138.264 20.1332C138.264 21.5654 139.121 22.1162 140.943 22.1162C143.623 22.1162 143.623 22.006 142.122 19.0315C141.265 17.2688 139.657 15.1756 138.693 14.2943C136.978 12.8621 136.871 12.9723 137.514 15.5061Z" fill="#214A96"/>
<path d="M118.651 28.6161C118.973 29.828 120.366 31.9212 121.866 33.3533L124.653 35.8872L124.01 33.133C123.581 31.5907 123.26 29.4975 123.26 28.3958C123.26 27.184 122.402 26.523 120.687 26.523C118.651 26.523 118.222 26.9636 118.651 28.6161Z" fill="#214A96"/>
<path d="M127.547 28.616C127.547 31.4803 129.691 37.5396 130.762 37.5396C131.834 37.5396 133.977 31.4803 133.977 28.616C133.977 27.0736 133.227 26.5228 130.762 26.5228C128.297 26.5228 127.547 27.0736 127.547 28.616Z" fill="#214A96"/>
<path d="M138.264 28.3958C138.264 29.4975 137.943 31.5907 137.514 33.133L136.871 35.8872L139.658 33.3533C143.516 29.6076 144.159 26.523 140.836 26.523C139.122 26.523 138.264 27.184 138.264 28.3958Z" fill="#214A96"/>
<path d="M3.11924 64.9712C-2.02506 70.2593 -0.631811 78.3015 6.01291 81.1659C14.1581 84.6913 21.9817 77.4202 19.3024 68.8271C16.8374 61.2255 8.69223 59.3527 3.11924 64.9712ZM13.515 68.9373C15.8728 72.683 14.1581 77.1999 10.407 77.1999C5.58422 77.1999 3.54793 71.4711 7.08464 67.9458C9.44244 65.4119 11.4787 65.7424 13.515 68.9373Z" fill="black"/>
<path d="M130.119 63.7597C121.652 67.8359 118.437 75.107 119.187 88.5474C119.616 97.471 121.117 100.776 126.797 105.183C131.191 108.488 139.872 108.818 145.766 105.623C154.983 100.776 157.019 89.4288 150.16 82.2679C147.16 79.1832 146.088 78.8527 140.622 78.8527C137.3 78.8527 133.656 79.2934 132.691 79.8442C129.798 81.2764 130.226 77.6408 133.441 74.446C136.335 71.3613 140.193 70.9206 144.587 73.3443C147.588 74.8867 147.695 74.8867 150.375 70.7003L153.054 66.5139L149.839 64.6411C145.016 61.6665 135.478 61.2259 130.119 63.7597ZM141.265 88.4373C143.516 90.7508 142.765 95.7083 139.872 97.6914C136.764 99.7845 133.441 98.9032 131.191 95.2677C129.583 92.844 129.583 92.4033 131.191 89.8695C133.12 86.7848 138.907 86.0136 141.265 88.4373Z" fill="#214A96"/>
<path d="M61.6355 64.4206C57.8845 65.6324 57.3486 66.0731 57.563 68.9375C57.9916 74.556 58.6347 75.217 62.7073 74.3357L66.4583 73.6747V90.31V106.945H71.817H77.1756V84.9118V62.8782L71.6026 62.9884C68.4946 62.9884 63.9933 63.6494 61.6355 64.4206Z" fill="#214A96"/>
<path d="M83.8204 67.5054L84.1419 72.2427H91.9656C96.1453 72.2427 99.682 72.5732 99.682 73.0138C99.682 73.4545 97.7529 75.4375 95.3951 77.3104C93.0373 79.2934 91.1082 81.7171 91.1082 82.8188C91.1082 87.0051 92.3943 88.217 96.574 88.217C101.933 88.217 105.684 91.522 103.969 94.827C101.825 98.9032 94.6449 98.5727 89.9293 94.166C88.536 92.844 87.7858 93.1745 84.5706 96.5897L80.9268 100.556L84.1419 103.2C90.358 108.378 100.218 109.479 107.934 105.954C113.614 103.2 116.187 98.4626 115.436 91.8525C114.901 86.234 113.293 84.0306 108.47 81.9374L104.933 80.3951L109.756 76.3189C114.043 72.6833 114.579 71.6918 114.579 67.5054L114.686 62.8784H99.039H83.4989L83.8204 67.5054Z" fill="#214A96"/>
<path d="M21.446 73.7849C21.446 81.8272 23.1608 83.8102 28.1979 81.8272C30.4486 80.9458 31.949 80.9458 32.592 81.6068C35.3785 84.4712 36.4503 82.7085 36.4503 74.9968C36.4503 67.5054 36.3431 67.285 33.7709 67.285C31.4131 67.285 31.0916 67.7257 31.0916 71.5816C31.0916 75.6578 29.0553 79.073 27.5549 77.5306C27.1262 77.2001 26.8047 74.6663 26.8047 72.0222C26.8047 67.7257 26.5903 67.285 24.1254 67.285C21.5532 67.285 21.446 67.6155 21.446 73.7849Z" fill="black"/>
<path d="M37.6288 68.0561C37.736 70.4798 42.4516 82.1576 43.2018 81.8271C43.6305 81.7169 44.9166 81.6068 45.9883 81.6068C47.4888 81.6068 48.5605 80.1746 49.9537 75.7679C50.9183 72.6832 51.99 69.3782 52.3115 68.607C52.6331 67.5053 52.0972 67.1748 50.3824 67.5053C48.5605 67.7256 47.5959 68.9375 46.7385 72.2425C45.4525 76.9797 44.7023 76.6492 43.4162 70.8103C42.8803 68.0561 42.1301 67.285 40.0938 67.285C38.7006 67.285 37.5217 67.6155 37.6288 68.0561Z" fill="black"/>
<path d="M3.01204 88.327C1.72597 88.988 1.08293 90.7507 1.08293 93.2845C1.08293 96.8099 1.51162 97.3607 5.36985 98.9031C9.76394 100.666 11.05 102.539 7.942 102.539C7.08461 102.539 5.36985 101.988 4.29812 101.437C2.69052 100.556 2.04749 100.776 0.975758 102.649C-0.631835 105.844 1.08293 106.945 7.72765 106.945C12.0146 106.945 13.0863 106.505 14.5867 104.191C17.0517 100.335 15.3369 96.5896 10.2998 94.8269C5.36985 93.1744 5.1555 91.0812 10.0855 91.9625C12.872 92.5133 13.8365 92.293 14.3724 90.8608C14.8011 89.7592 14.4795 88.5473 13.7293 87.9965C11.8002 86.7846 5.26267 87.005 3.01204 88.327Z" fill="black"/>
<path d="M17.3733 94.7167C17.9092 104.301 19.8383 106.945 26.2686 106.945C32.699 106.945 34.6281 104.301 35.164 94.7167C35.5927 87.2253 35.5927 87.1151 32.9134 87.1151C30.234 87.1151 30.1269 87.4456 29.8054 93.8354C29.2695 106.174 22.5176 105.293 22.5176 92.954C22.5176 87.4456 22.4104 87.1151 19.7311 87.1151C16.9446 87.1151 16.9446 87.1151 17.3733 94.7167Z" fill="black"/>
<path d="M39.3437 89.0982C35.9142 92.9541 37.3074 97.4709 42.4517 99.2336C46.2028 100.556 47.3817 102.539 44.3808 102.539C43.5235 102.539 41.8087 101.988 40.737 101.437C39.1294 100.556 38.4863 100.776 37.5218 102.649C35.807 105.734 36.5572 106.174 43.845 106.725C49.5251 107.166 50.2754 106.945 51.4543 104.852C53.5977 100.666 52.4188 97.8014 47.4889 95.3778C41.9159 92.7337 41.4872 90.9711 46.6315 91.9626C49.6323 92.6236 50.5969 92.2931 51.1327 90.8609C51.9901 88.5474 49.7395 87.1152 44.9167 87.1152C42.5589 87.1152 40.4154 87.8864 39.3437 89.0982Z" fill="black"/>
</svg>
